<?xml version="1.0" encoding="UTF-8" standalone="no"?>
<svg
   aria-hidden="true"
   focusable="false"
   data-prefix="fas"
   data-icon="page"
   width="50"
   color="#808080"
   role="img"
   viewBox="0 0 41.142857 50"
   version="1.1"
   id="svg265"
   sodipodi:docname="friends-icon.svg"
   height="50"
   inkscape:version="1.1 (c68e22c387, 2021-05-23)"
   xmlns:inkscape="http://www.inkscape.org/namespaces/inkscape"
   xmlns:sodipodi="http://sodipodi.sourceforge.net/DTD/sodipodi-0.dtd"
   xmlns="http://www.w3.org/2000/svg"
   xmlns:svg="http://www.w3.org/2000/svg">
  <defs
     id="defs269" />
  <sodipodi:namedview
     id="namedview267"
     pagecolor="#ffffff"
     bordercolor="#666666"
     borderopacity="1.0"
     inkscape:pageshadow="2"
     inkscape:pageopacity="0.0"
     inkscape:pagecheckerboard="0"
     showgrid="false"
     width="50px"
     inkscape:zoom="1.5271429"
     inkscape:cx="127.36202"
     inkscape:cy="256.03368"
     inkscape:window-width="1282"
     inkscape:window-height="1040"
     inkscape:window-x="166"
     inkscape:window-y="141"
     inkscape:window-maximized="0"
     inkscape:current-layer="svg265" />
  <path
     fill="currentColor"
     d="M 42.686813,25 C 42.686813,12.786538 32.78489,2.8846154 20.571429,2.8846154 8.3579672,2.8846154 -1.5439561,12.786538 -1.5439561,25 c 0,12.213462 9.9019233,22.115385 22.1153851,22.115385 12.213461,0 22.115384,-9.901923 22.115384,-22.115385 z m 2.884615,0 c 0,13.807692 -11.192307,25 -24.999999,25 C 6.7637364,50 -4.4285715,38.807692 -4.4285715,25 -4.4285715,11.192308 6.7637364,0 20.571429,0 34.379121,0 45.571428,11.192308 45.571428,25 Z M 8.0310441,25 h 0.2923077 c 0.5807693,0 0.9057693,0.65 0.5826923,1.136538 -1.1538461,1.73077 -1.8288461,3.801924 -1.8288461,6.025 v 0.95577 c 0,0.232692 0.013462,0.461538 0.040385,0.686538 0.05,0.430769 -0.273077,0.811539 -0.7057693,0.811539 H 5.4233518 c -1.7211539,0 -3.1211539,-1.442308 -3.1211539,-3.217308 C 2.3021979,27.869231 4.6618133,25 8.0310441,25 Z m 25.0807709,0 c 3.371152,0 5.728844,2.869231 5.728844,6.398077 0,1.775 -1.4,3.217308 -3.119231,3.217308 h -0.988459 c -0.432695,0 -0.757693,-0.38077 -0.70577,-0.811539 0.025,-0.225 0.03846,-0.453846 0.03846,-0.686538 v -0.95577 c 0,-2.223076 -0.673077,-4.29423 -1.826921,-6.025 C 31.915661,25.65 32.238738,25 32.819505,25 Z M 9.5137365,23.076923 c -2.1211539,0 -3.846154,-1.940385 -3.846154,-4.326923 0,-2.626923 1.5096155,-4.326923 3.846154,-4.326923 2.3365385,0 3.8461535,1.7 3.8461535,4.326923 0,2.386538 -1.725,4.326923 -3.8461535,4.326923 z m 22.1153855,0 c -2.121155,0 -3.846153,-1.940385 -3.846153,-4.326923 0,-2.626923 1.509615,-4.326923 3.846153,-4.326923 2.336539,0 3.846152,1.7 3.846152,4.326923 0,2.386538 -1.724998,4.326923 -3.846152,4.326923 z m -8.803847,0.961539 c 4.588463,0 8.323078,3.64423 8.323078,8.123076 v 0.95577 c 0,1.886538 -1.571154,3.421154 -3.505771,3.421154 H 13.500275 c -1.934615,0 -3.5057693,-1.534616 -3.5057693,-3.421154 v -0.95577 c 0,-4.478846 3.7326923,-8.123076 8.3230773,-8.123076 z m 3.034617,-8.653847 c 0,3.182693 -2.371156,5.769231 -5.288463,5.769231 -2.915385,0 -5.288462,-2.586538 -5.288462,-5.769231 0,-3.557692 2.026923,-5.7692304 5.288462,-5.7692304 3.263461,0 5.288463,2.2115384 5.288463,5.7692304 z"
     id="path263"
     style="stroke-width:1.92308" />
</svg>
