<?xml version="1.0" encoding="UTF-8" standalone="no"?>
<svg
   aria-hidden="true"
   focusable="false"
   color="#808080"
   data-prefix="fas"
   data-icon="home"
   role="img"
   viewBox="0 0 50 50"
   version="1.1"
   id="svg108"
   sodipodi:docname="home-icon.svg"
   width="50"
   height="50"
   inkscape:version="1.1 (c68e22c387, 2021-05-23)"
   xmlns:inkscape="http://www.inkscape.org/namespaces/inkscape"
   xmlns:sodipodi="http://sodipodi.sourceforge.net/DTD/sodipodi-0.dtd"
   xmlns="http://www.w3.org/2000/svg"
   xmlns:svg="http://www.w3.org/2000/svg">
  <defs
     id="defs112" />
  <sodipodi:namedview
     id="namedview110"
     pagecolor="#ffffff"
     bordercolor="#666666"
     borderopacity="1.0"
     inkscape:pageshadow="2"
     inkscape:pageopacity="0.0"
     inkscape:pagecheckerboard="0"
     showgrid="false"
     width="50px"
     inkscape:zoom="1.625"
     inkscape:cx="288.30769"
     inkscape:cy="256"
     inkscape:window-width="1282"
     inkscape:window-height="1040"
     inkscape:window-x="78"
     inkscape:window-y="53"
     inkscape:window-maximized="0"
     inkscape:current-layer="svg108" />
  <path
     fill="currentColor"
     d="M 24.337099,12.971314 8.3339919,29.92075 V 48.214087 A 1.3887818,1.7859136 0 0 0 9.722774,50 l 9.726681,-0.03236 a 1.3887818,1.7859136 0 0 0 1.381838,-1.785914 V 37.498604 a 1.3887818,1.7859136 0 0 1 1.388781,-1.785913 h 5.555128 a 1.3887818,1.7859136 0 0 1 1.388782,1.785913 v 10.675299 a 1.3887818,1.7859136 0 0 0 1.388782,1.791495 l 9.723209,0.0346 a 1.3887818,1.7859136 0 0 0 1.388781,-1.78591 V 29.908472 L 25.665121,12.971314 a 1.0580782,1.3606429 0 0 0 -1.328022,0 z M 49.615532,24.491573 42.359147,16.799866 V 1.3394352 A 1.0415864,1.3394352 0 0 0 41.317561,0 H 36.456825 A 1.0415864,1.3394352 0 0 0 35.415238,1.3394352 V 9.4441344 L 27.644136,1.2222346 a 4.1663455,5.3577409 0 0 0 -5.294731,0 L 0.37800791,24.491573 a 1.0415864,1.3394352 0 0 0 -0.13887819,1.886371 l 2.21337098,3.460207 a 1.0415864,1.3394352 0 0 0 1.4677689,0.181941 L 24.337099,8.3949102 a 1.0580782,1.3606429 0 0 1 1.328022,0 L 46.082819,30.020092 a 1.0415864,1.3394352 0 0 0 1.4669,-0.178591 l 2.213371,-3.460208 a 1.0415864,1.3394352 0 0 0 -0.147558,-1.88972 z"
     id="path106"
     style="stroke-width:0.0984295" />
</svg>
