<?xml version="1.0" encoding="UTF-8" standalone="no"?>
<svg
   aria-hidden="true"
   focusable="false"
   data-prefix="fas"
   data-icon="page"
   width="50"
   color="#808080"
   role="img"
   viewBox="0 0 41.142857 50"
   version="1.1"
   id="svg88"
   sodipodi:docname="marketplace-icon.svg"
   height="50"
   inkscape:version="1.1 (c68e22c387, 2021-05-23)"
   xmlns:inkscape="http://www.inkscape.org/namespaces/inkscape"
   xmlns:sodipodi="http://sodipodi.sourceforge.net/DTD/sodipodi-0.dtd"
   xmlns="http://www.w3.org/2000/svg"
   xmlns:svg="http://www.w3.org/2000/svg">
  <defs
     id="defs92" />
  <sodipodi:namedview
     id="namedview90"
     pagecolor="#ffffff"
     bordercolor="#666666"
     borderopacity="1.0"
     inkscape:pageshadow="2"
     inkscape:pageopacity="0.0"
     inkscape:pagecheckerboard="0"
     showgrid="false"
     width="50px"
     inkscape:zoom="1.5271429"
     inkscape:cx="127.36202"
     inkscape:cy="256.03368"
     inkscape:window-width="1282"
     inkscape:window-height="1040"
     inkscape:window-x="110"
     inkscape:window-y="60"
     inkscape:window-maximized="0"
     inkscape:current-layer="svg88" />
  <path
     fill="currentColor"
     d="m 27.863095,46.666666 h 8.854169 c 0.8625,0 1.562498,-0.746667 1.562498,-1.666666 V 25 h 0.06458 c -0.347914,-0.184445 -0.67708,-0.411111 -0.979162,-0.68 l -0.835416,-0.744445 c -0.193751,-0.168888 -0.472918,-0.168888 -0.666667,0.0022 l -0.341667,0.304472 c -1.21875,1.08 -2.752084,1.673333 -4.335417,1.673333 h -0.470836 c -1.572917,0 -3.097916,-0.584444 -4.310414,-1.653333 L 26.02143,23.564444 c -0.193749,-0.168888 -0.470834,-0.168888 -0.662501,0 l -0.385416,0.34 c -1.214584,1.066667 -2.739584,1.651111 -4.310418,1.651111 h -0.285416 c -1.552083,0 -3.058334,-0.568889 -4.2625,-1.61111 l -0.45,-0.388889 c -0.19375,-0.166668 -0.470834,-0.164445 -0.660417,0.0045 l -0.360416,0.322222 c -1.21875,1.082222 -2.752083,1.673333 -4.335417,1.673333 H 9.9380956 c -1.56875,0 -3.0875001,-0.58 -4.3000001,-1.642222 L 5.2339287,23.557778 c -0.1937499,-0.16889 -0.46875,-0.16889 -0.6625,0 L 3.5901788,24.42 C 3.3339288,24.644444 3.0547622,24.839999 2.7630955,25 h 0.1 v 20 c 0,0.919999 0.7,1.666666 1.5624999,1.666666 H 13.279762 V 32.777778 C 13.279762,31.244445 14.446429,30 15.88393,30 h 9.375 c 1.437499,0 2.604167,1.244445 2.604167,2.777778 z M -0.94315473,13.333333 H 42.086012 c -0.05625,-0.2 -0.116667,-0.397777 -0.185417,-0.593333 L 39.502679,5.7888889 C 38.952678,4.3066666 37.60893,3.3333333 36.115178,3.3333333 H 5.0297621 c -1.4958333,0 -2.8395834,0.9733333 -3.3770834,2.4177778 L -0.75773806,12.74 c -0.06875,0.195556 -0.12916667,0.393333 -0.18541667,0.593333 z M 42.446428,16.666667 H -1.3035714 v 3.888889 c 0,0.919999 0.70000002,1.666666 1.56250004,1.666666 h 0.35625001 c 0.36250001,0 0.71249995,-0.133333 0.99166665,-0.377777 l 0.9812501,-0.860001 c 1.34375,-1.179999 3.2854168,-1.179999 4.6291668,0 l 0.4041667,0.353334 c 0.6520833,0.571111 1.4708333,0.884444 2.3166667,0.884444 h 0.3708334 c 0.852083,0 1.679166,-0.317777 2.333333,-0.9 L 13.004762,21 c 1.3375,-1.188889 3.277084,-1.202222 4.627084,-0.03333 l 0.45,0.386667 c 0.65,0.562221 1.460416,0.868888 2.295833,0.868888 h 0.285416 c 0.845835,0 1.666668,-0.315555 2.320834,-0.888888 l 0.385417,-0.34 c 1.345834,-1.186667 3.293751,-1.186667 4.641668,0 l 0.383333,0.339999 c 0.652084,0.573334 1.472917,0.888889 2.320833,0.888889 h 0.470834 c 0.852084,0 1.679167,-0.32 2.335417,-0.902223 l 0.341666,-0.302221 c 1.35,-1.204445 3.316667,-1.204445 4.666667,-0.0022 l 0.837501,0.744444 c 0.335416,0.297779 0.760416,0.462222 1.199999,0.462222 1.039583,0 1.879167,-0.895555 1.879167,-2 z m -1.041666,8.815555 V 45 c 0,2.762222 -2.097916,5 -4.687498,5 H 4.4255954 C 1.836012,50 -0.26190471,47.762222 -0.26190471,45 V 25.524445 C -2.6056548,25.248889 -4.4285715,23.128888 -4.4285715,20.555556 v -4.553334 c 0,-1.508889 0.25,-3.002222 0.7375,-4.415556 L -1.2660714,4.5600002 C -0.24107137,1.8066667 2.2526787,0 5.0297621,0 H 36.115178 c 2.775,0 5.268751,1.8066667 6.306251,4.597778 l 2.4125,6.988888 c 0.487502,1.413334 0.7375,2.906667 0.7375,4.415556 v 4.22 c 0,2.642222 -1.802083,4.835556 -4.166667,5.26 z M 24.738096,46.666666 V 33.333333 h -8.333334 v 13.333333 z"
     id="path86"
     style="stroke-width:2.15166" />
</svg>
