<?xml version="1.0" encoding="UTF-8" standalone="no"?>
<svg
   aria-hidden="true"
   focusable="false"
   data-prefix="fas"
   data-icon="page"
   width="50"
   role="img"
   viewBox="0 0 41.142857 50"
   version="1.1"
   id="svg20"
   color="gray"
   sodipodi:docname="page-icon.svg"
   height="50"
   inkscape:version="1.1 (c68e22c387, 2021-05-23)"
   xmlns:inkscape="http://www.inkscape.org/namespaces/inkscape"
   xmlns:sodipodi="http://sodipodi.sourceforge.net/DTD/sodipodi-0.dtd"
   xmlns="http://www.w3.org/2000/svg"
   xmlns:svg="http://www.w3.org/2000/svg">
  <defs
     id="defs24" />
  <sodipodi:namedview
     id="namedview22"
     pagecolor="#ffffff"
     bordercolor="#666666"
     borderopacity="1.0"
     inkscape:pageshadow="2"
     inkscape:pageopacity="0.0"
     inkscape:pagecheckerboard="0"
     showgrid="false"
     width="50px"
     inkscape:zoom="1.5271429"
     inkscape:cx="127.36202"
     inkscape:cy="256.03368"
     inkscape:window-width="1282"
     inkscape:window-height="1040"
     inkscape:window-x="212"
     inkscape:window-y="87"
     inkscape:window-maximized="0"
     inkscape:current-layer="svg20" />
  <path
     fill="currentColor"
     d="M 0.294319,4.9142726 A 1.7788962,1.4171726 0 0 1 -1.4845775,3.4971011 V 1.6075376 a 1.7788971,1.4171734 0 0 1 3.5577941,0 V 3.4971011 A 1.7788962,1.4171726 0 0 1 0.294319,4.9142726 Z M 2.0732166,26.173753 a 1.7788971,1.4171734 0 0 1 -3.5577941,0 V 13.88781 a 1.7788971,1.4171734 0 0 1 3.5577941,0 z M 0.294319,50.263797 A 1.7788962,1.4171726 0 0 1 -1.4845775,48.846624 V 36.564462 a 1.7788971,1.4171734 0 0 1 3.5577941,0 V 48.846624 A 1.7788962,1.4171726 0 0 1 0.294319,50.263797 Z M 37.620305,19.588624 41.71651,9.6381823 H 9.1888009 V 30.423381 H 41.718883 l -4.098578,-9.950442 a 1.7765244,1.4152831 0 0 1 0,-0.884315 z M -2.0775429,6.8038362 H 44.173759 a 1.7788962,1.4171726 0 0 1 1.691138,1.8631103 l -4.682056,11.3487175 4.682056,11.380842 a 1.7788962,1.4171726 0 0 1 -1.691138,1.861219 H -2.0775429 a 1.7812684,1.4190625 0 0 1 0,-2.838125 l 7.7085516,0.0038 V 9.6381823 h -7.7085516 a 1.7788968,1.4171731 0 1 1 0,-2.8343461 z"
     id="path18"
     style="stroke-width:2.11702" />
</svg>
