<?xml version="1.0" encoding="UTF-8"?>
<svg xmlns="http://www.w3.org/2000/svg" xmlns:xlink="http://www.w3.org/1999/xlink" width="375pt" height="374.999991pt" viewBox="0 0 375 374.999991" version="1.2">
<g id="surface1">
<path style=" stroke:none;fill-rule:nonzero;fill:rgb(1.179504%,60.778809%,89.7995%);fill-opacity:1;" d="M 186.773438 0 C 183.714844 0 180.660156 0.0742188 177.609375 0.226562 C 174.554688 0.375 171.507812 0.601562 168.464844 0.902344 C 165.421875 1.199219 162.390625 1.574219 159.367188 2.023438 C 156.34375 2.472656 153.332031 2.996094 150.332031 3.59375 C 147.335938 4.191406 144.351562 4.859375 141.386719 5.605469 C 138.421875 6.347656 135.476562 7.164062 132.550781 8.050781 C 129.625 8.941406 126.726562 9.902344 123.847656 10.933594 C 120.96875 11.960938 118.117188 13.0625 115.292969 14.234375 C 112.46875 15.40625 109.675781 16.644531 106.910156 17.953125 C 104.148438 19.261719 101.417969 20.640625 98.722656 22.082031 C 96.027344 23.523438 93.367188 25.03125 90.746094 26.605469 C 88.125 28.179688 85.542969 29.816406 83 31.515625 C 80.457031 33.21875 77.960938 34.980469 75.503906 36.800781 C 73.050781 38.625 70.640625 40.507812 68.277344 42.449219 C 65.914062 44.390625 63.601562 46.390625 61.335938 48.445312 C 59.070312 50.5 56.855469 52.609375 54.695312 54.773438 C 52.535156 56.9375 50.425781 59.152344 48.375 61.421875 C 46.320312 63.6875 44.324219 66.003906 42.386719 68.371094 C 40.445312 70.738281 38.566406 73.148438 36.746094 75.605469 C 34.925781 78.066406 33.164062 80.566406 31.464844 83.113281 C 29.769531 85.65625 28.132812 88.242188 26.5625 90.867188 C 24.988281 93.492188 23.484375 96.152344 22.042969 98.851562 C 20.601562 101.550781 19.226562 104.285156 17.921875 107.050781 C 16.613281 109.820312 15.375 112.617188 14.207031 115.441406 C 13.035156 118.269531 11.9375 121.125 10.90625 124.007812 C 9.875 126.886719 8.917969 129.792969 8.03125 132.722656 C 7.144531 135.652344 6.328125 138.601562 5.585938 141.570312 C 4.84375 144.539062 4.171875 147.523438 3.574219 150.523438 C 2.980469 153.527344 2.457031 156.539062 2.007812 159.566406 C 1.558594 162.59375 1.1875 165.632812 0.886719 168.679688 C 0.585938 171.722656 0.363281 174.773438 0.210938 177.832031 C 0.0625 180.886719 -0.0117188 183.949219 -0.0117188 187.007812 C -0.0117188 190.070312 0.0625 193.128906 0.210938 196.183594 C 0.363281 199.242188 0.585938 202.292969 0.886719 205.335938 C 1.1875 208.382812 1.558594 211.421875 2.007812 214.449219 C 2.457031 217.476562 2.980469 220.488281 3.574219 223.492188 C 4.171875 226.492188 4.84375 229.476562 5.585938 232.445312 C 6.328125 235.414062 7.144531 238.363281 8.03125 241.292969 C 8.917969 244.222656 9.875 247.128906 10.90625 250.007812 C 11.9375 252.890625 13.035156 255.746094 14.207031 258.574219 C 15.375 261.398438 16.613281 264.199219 17.921875 266.964844 C 19.226562 269.730469 20.601562 272.464844 22.042969 275.164062 C 23.484375 277.863281 24.988281 280.523438 26.5625 283.148438 C 28.132812 285.773438 29.769531 288.359375 31.464844 290.902344 C 33.164062 293.449219 34.925781 295.949219 36.746094 298.410156 C 38.566406 300.867188 40.445312 303.277344 42.386719 305.644531 C 44.324219 308.011719 46.320312 310.328125 48.375 312.59375 C 50.425781 314.863281 52.535156 317.078125 54.695312 319.242188 C 56.855469 321.40625 59.070312 323.515625 61.335938 325.570312 C 63.601562 327.625 65.914062 329.625 68.277344 331.566406 C 70.640625 333.507812 73.050781 335.390625 75.503906 337.214844 C 77.960938 339.035156 80.457031 340.800781 83 342.5 C 85.542969 344.199219 88.125 345.835938 90.746094 347.410156 C 93.367188 348.984375 96.027344 350.492188 98.722656 351.933594 C 101.417969 353.375 104.148438 354.753906 106.910156 356.0625 C 109.675781 357.371094 112.46875 358.609375 115.292969 359.78125 C 118.117188 360.953125 120.96875 362.054688 123.847656 363.085938 C 126.726562 364.113281 129.625 365.074219 132.550781 365.964844 C 135.476562 366.851562 138.421875 367.667969 141.386719 368.410156 C 144.351562 369.15625 147.335938 369.824219 150.332031 370.421875 C 153.332031 371.019531 156.34375 371.542969 159.367188 371.992188 C 162.390625 372.441406 165.421875 372.816406 168.464844 373.113281 C 171.507812 373.414062 174.554688 373.640625 177.609375 373.789062 C 180.660156 373.941406 183.714844 374.015625 186.773438 374.015625 C 189.828125 374.015625 192.886719 373.941406 195.9375 373.789062 C 198.992188 373.640625 202.039062 373.414062 205.082031 373.113281 C 208.125 372.816406 211.15625 372.441406 214.179688 371.992188 C 217.203125 371.542969 220.214844 371.019531 223.214844 370.421875 C 226.210938 369.824219 229.191406 369.15625 232.15625 368.410156 C 235.125 367.667969 238.070312 366.851562 240.992188 365.964844 C 243.917969 365.074219 246.820312 364.113281 249.699219 363.085938 C 252.578125 362.054688 255.429688 360.953125 258.253906 359.78125 C 261.078125 358.609375 263.871094 357.371094 266.632812 356.0625 C 269.398438 354.753906 272.128906 353.375 274.824219 351.933594 C 277.519531 350.492188 280.179688 348.984375 282.800781 347.410156 C 285.421875 345.835938 288.003906 344.199219 290.546875 342.5 C 293.085938 340.800781 295.585938 339.035156 298.042969 337.214844 C 300.496094 335.390625 302.90625 333.507812 305.269531 331.566406 C 307.632812 329.625 309.945312 327.625 312.210938 325.570312 C 314.476562 323.515625 316.6875 321.40625 318.851562 319.242188 C 321.011719 317.078125 323.121094 314.863281 325.171875 312.59375 C 327.226562 310.328125 329.222656 308.011719 331.160156 305.644531 C 333.097656 303.277344 334.980469 300.867188 336.800781 298.410156 C 338.621094 295.949219 340.382812 293.449219 342.078125 290.902344 C 343.777344 288.359375 345.414062 285.773438 346.984375 283.148438 C 348.554688 280.523438 350.0625 277.863281 351.503906 275.164062 C 352.945312 272.464844 354.316406 269.730469 355.625 266.964844 C 356.933594 264.199219 358.171875 261.398438 359.339844 258.574219 C 360.511719 255.746094 361.609375 252.890625 362.640625 250.007812 C 363.667969 247.128906 364.628906 244.222656 365.515625 241.292969 C 366.402344 238.363281 367.21875 235.414062 367.960938 232.445312 C 368.703125 229.476562 369.375 226.492188 369.96875 223.492188 C 370.566406 220.488281 371.089844 217.476562 371.535156 214.449219 C 371.984375 211.421875 372.359375 208.382812 372.660156 205.335938 C 372.957031 202.292969 373.183594 199.242188 373.332031 196.183594 C 373.484375 193.128906 373.558594 190.070312 373.558594 187.007812 C 373.558594 183.949219 373.484375 180.886719 373.332031 177.832031 C 373.183594 174.773438 372.957031 171.722656 372.660156 168.679688 C 372.359375 165.632812 371.984375 162.59375 371.535156 159.566406 C 371.089844 156.539062 370.566406 153.527344 369.96875 150.523438 C 369.375 147.523438 368.703125 144.539062 367.960938 141.570312 C 367.21875 138.601562 366.402344 135.652344 365.515625 132.722656 C 364.628906 129.792969 363.667969 126.886719 362.640625 124.007812 C 361.609375 121.125 360.511719 118.269531 359.339844 115.441406 C 358.171875 112.617188 356.933594 109.820312 355.625 107.050781 C 354.316406 104.285156 352.945312 101.550781 351.503906 98.851562 C 350.0625 96.152344 348.554688 93.492188 346.984375 90.867188 C 345.414062 88.242188 343.777344 85.65625 342.078125 83.113281 C 340.382812 80.566406 338.621094 78.066406 336.800781 75.605469 C 334.980469 73.148438 333.097656 70.738281 331.160156 68.371094 C 329.222656 66.003906 327.226562 63.6875 325.171875 61.421875 C 323.121094 59.152344 321.011719 56.9375 318.851562 54.773438 C 316.6875 52.609375 314.476562 50.5 312.210938 48.445312 C 309.945312 46.390625 307.632812 44.390625 305.269531 42.449219 C 302.90625 40.507812 300.496094 38.625 298.042969 36.800781 C 295.585938 34.980469 293.085938 33.21875 290.546875 31.515625 C 288.003906 29.816406 285.421875 28.179688 282.800781 26.605469 C 280.179688 25.03125 277.519531 23.523438 274.824219 22.082031 C 272.128906 20.640625 269.398438 19.261719 266.632812 17.953125 C 263.871094 16.644531 261.078125 15.40625 258.253906 14.234375 C 255.429688 13.0625 252.578125 11.960938 249.699219 10.933594 C 246.820312 9.902344 243.917969 8.941406 240.992188 8.050781 C 238.070312 7.164062 235.125 6.347656 232.15625 5.605469 C 229.191406 4.859375 226.210938 4.191406 223.214844 3.59375 C 220.214844 2.996094 217.203125 2.472656 214.179688 2.023438 C 211.15625 1.574219 208.125 1.199219 205.082031 0.902344 C 202.039062 0.601562 198.992188 0.375 195.9375 0.226562 C 192.886719 0.0742188 189.828125 0 186.773438 0 Z M 186.773438 0 "/>
<path style=" stroke:none;fill-rule:nonzero;fill:rgb(100%,100%,100%);fill-opacity:1;" d="M 212.058594 236.574219 L 260.394531 236.574219 L 267.984375 187.410156 L 212.046875 187.410156 L 212.046875 160.542969 C 212.046875 140.117188 218.714844 122.007812 237.796875 122.007812 L 268.457031 122.007812 L 268.457031 79.105469 C 263.070312 78.375 251.675781 76.78125 230.148438 76.78125 C 185.191406 76.78125 158.832031 100.550781 158.832031 154.703125 L 158.832031 187.410156 L 112.617188 187.410156 L 112.617188 236.574219 L 158.832031 236.574219 L 158.832031 371.703125 C 167.984375 373.082031 177.257812 374.015625 186.773438 374.015625 C 195.375 374.015625 203.769531 373.226562 212.058594 372.105469 Z M 212.058594 236.574219 "/>
</g>
</svg>
